<?xml version="1.0" encoding="UTF-8"?>
<svg width="217px" height="172px" viewBox="0 0 217 172" version="1.1" xmlns="http://www.w3.org/2000/svg" xmlns:xlink="http://www.w3.org/1999/xlink">
    <!-- Generator: Sketch 43.2 (39069) - http://www.bohemiancoding.com/sketch -->
    <title>Group</title>
    <desc>Created with Sketch.</desc>
    <defs></defs>
    <g id="Page-1" stroke="none" stroke-width="1" fill="none" fill-rule="evenodd">
        <g id="Group" transform="translate(2.000000, 2.000000)">
            <path d="M86.042,14.675 C86.042,14.675 87.694,1.124 109.504,0.795 C131.313,0.465 135.611,19.301 138.254,47.059 C140.898,74.817 131.977,90.68 121.071,91.011 C110.166,91.342 100.581,90.351 97.938,81.429" id="Fill-53" fill="#F6C9AF"></path>
            <path d="M41.569,28.569 C41.569,28.569 43.509,1.742 62.017,1.586 C80.524,1.429 86.253,5.576 93.537,43.73" id="Fill-54" fill="#F6C9AF"></path>
            <path d="M61.918,2.447 C61.918,2.447 60.597,10.378 61.258,17.648 C61.918,24.917 63.24,30.205 63.24,30.205 C63.24,30.205 57.952,27.231 50.353,28.223 C42.752,29.215 41.1,30.537 41.1,30.537 C41.1,30.537 43.744,13.353 49.031,9.056 C54.318,4.762 61.918,2.447 61.918,2.447" id="Fill-55" fill="#E9A486"></path>
            <path d="M107.852,1.787 C107.852,1.787 102.896,6.081 103.887,20.952 C104.878,35.823 111.157,63.252 111.157,63.252 C111.157,63.252 107.191,55.321 100.582,50.694 C93.973,46.067 92.981,46.398 92.981,46.398 L86.373,12.03 C86.373,12.03 90.999,-0.195 107.852,1.787" id="Fill-56" fill="#E9A486"></path>
            <path d="M93.537,43.73 C86.253,5.576 79.763,-0.858 62.017,1.586 C44.11,4.051 41.569,28.569 41.569,28.569" id="Stroke-57" stroke="#462A1E" stroke-width="4" stroke-linecap="round" stroke-linejoin="round"></path>
            <path d="M46.719,88.037 C46.719,88.037 52.005,84.399 54.648,77.46 C57.292,70.521 55.31,60.277 55.31,60.277" id="Stroke-58" stroke="#281120" stroke-width="0.991" stroke-linecap="round" stroke-linejoin="round"></path>
            <path d="M56.301,70.191 C56.301,70.191 62.58,78.783 81.416,82.417 C100.252,86.054 120.74,70.852 106.53,55.65 C92.321,40.451 67.277,31.968 55.97,28.884 C45.064,25.909 31.186,29.876 16.977,45.407 C2.767,60.938 -11.659,81.139 14.663,119.099 C38.951,154.127 77.78,164.702 113.801,167.347 C152.163,170.162 185.227,160.573 197.572,134.796 C208.808,111.332 207.65,86.054 207.65,86.054" id="Fill-59" fill="#F6C9AF"></path>
            <path d="M178.57,35.494 C178.57,35.494 184.519,28.555 197.076,31.197 C209.634,33.842 214.92,58.626 211.947,74.817 C208.973,91.011 196.105,96.523 188.154,94.977 C176.258,92.662 174.274,80.105 174.274,80.105" id="Fill-60" fill="#F6C9AF"></path>
            <path d="M111.488,70.521 C111.488,70.521 113.021,79.569 118.428,82.748 C124.045,86.052 133.297,84.399 133.297,84.399 C133.297,84.399 122.393,93.323 112.479,91.34 C102.564,89.356 97.938,81.095 97.938,81.095 C97.938,81.095 108.844,76.801 111.488,70.521" id="Fill-61" fill="#E9A486"></path>
            <path d="M133.959,20.954 C133.959,20.954 138.254,10.709 155.77,11.04 C173.283,11.369 180.223,28.886 180.554,55.652 C180.883,82.419 164.962,92.612 153.356,92.333 C139.576,92.002 135.756,79.382 135.756,79.382" id="Fill-62" fill="#F6C9AF"></path>
            <path d="M148.83,12.361 C148.83,12.361 145.854,26.24 146.516,45.737 C147.178,65.233 148.168,79.112 156.1,81.758 C164.03,84.399 173.283,82.417 173.283,82.417 C173.283,82.417 159.404,95.637 149.821,92.331 C140.237,89.026 135.281,80.104 135.281,80.104 C135.281,80.104 141.228,54.328 138.585,41.439 C135.941,28.552 134.619,19.96 134.619,19.96 C134.619,19.96 143.873,11.699 148.83,12.361" id="Fill-63" fill="#E9A486"></path>
            <path d="M110.496,102.576 C110.496,102.576 116.774,104.557 123.054,101.914 C129.332,99.271 133.628,96.297 133.628,96.297 C133.628,96.297 135.94,105.88 147.508,107.533 C159.074,109.185 169.979,100.923 169.979,100.923 C169.979,100.923 173.614,107.202 181.875,108.524 C190.137,109.845 206.66,100.594 206.66,100.594 L207.32,87.043 C207.32,87.043 195.094,98.28 188.814,94.975 C182.536,91.671 174.605,81.427 174.605,81.427 C174.605,81.427 164.494,94.315 153.356,92.333 C142.221,90.349 134.95,80.766 134.95,80.766 C134.95,80.766 127.35,91.671 118.428,91.671 C109.504,91.671 97.938,81.429 97.938,81.429 L83.729,84.069 C83.729,84.069 107.521,97.619 109.835,102.245" id="Fill-64" fill="#E9A486"></path>
            <path d="M86.042,14.675 C86.042,14.675 87.694,1.124 109.504,0.795 C131.313,0.465 135.611,19.301 138.254,47.059 C140.898,74.817 134.288,89.027 121.071,91.011 C111.392,92.463 100.581,90.351 97.938,81.429 M53.988,79.445 C53.988,79.445 87.033,76.472 109.835,101.255" id="Stroke-65" stroke="#462A1E" stroke-width="4" stroke-linecap="round" stroke-linejoin="round"></path>
            <path d="M113.801,167.347 C132.688,168.733 150.286,167.104 164.765,162.026 C69.822,160.618 46.266,129.783 30.524,103.072 C16.526,79.317 26.485,45.417 36.174,30.845 C30.018,33.542 23.532,38.241 16.977,45.407 C2.767,60.938 -11.659,81.139 14.663,119.099 C38.951,154.127 77.78,164.702 113.801,167.347" id="Fill-66" fill="#E9A486"></path>
            <path d="M46.387,51.354 C46.387,51.354 57.241,76.283 71.171,81.095 C89.348,87.374 107.191,74.817 107.191,74.817 C107.191,74.817 85.381,70.521 74.146,66.225 C62.91,61.93 46.387,51.354 46.387,51.354" id="Fill-67" fill="#E9A486"></path>
            <path d="M56.301,70.191 C56.301,70.191 62.58,78.783 81.416,82.417 C100.252,86.054 120.74,70.852 106.53,55.65 C92.321,40.451 67.277,31.968 55.97,28.884 C45.064,25.909 31.186,29.876 16.977,45.407 C2.767,60.938 -11.659,81.139 14.663,119.099 C38.951,154.127 77.78,164.702 113.801,167.347 C152.163,170.162 185.227,160.573 197.572,134.796 C208.808,111.332 207.65,86.054 207.65,86.054" id="Stroke-68" stroke="#462A1E" stroke-width="4" stroke-linecap="round" stroke-linejoin="round"></path>
            <path d="M184.52,33.509 C184.52,33.509 181.874,62.591 187.162,71.513 C192.45,80.435 205.667,82.419 211.947,74.817 C218.226,67.216 205.008,99.931 188.814,94.975 C172.623,90.018 174.605,80.766 174.605,80.766 C174.605,80.766 181.874,64.241 181.214,52.016 C180.554,39.788 178.9,35.162 178.9,35.162 L184.52,33.509" id="Fill-69" fill="#E9A486"></path>
            <path d="M133.959,20.954 C133.959,20.954 138.254,10.709 155.77,11.04 C173.283,11.369 180.223,28.886 180.554,55.652 C180.883,82.419 164.962,92.612 153.356,92.333 C139.576,92.002 135.756,79.382 135.756,79.382 M178.57,35.494 C178.57,35.494 184.519,28.555 197.076,31.197 C209.634,33.842 214.92,58.626 211.947,74.817 C208.973,91.011 196.105,96.523 188.154,94.977 C176.258,92.662 174.363,80.64 174.363,80.64" id="Stroke-70" stroke="#462A1E" stroke-width="4" stroke-linecap="round" stroke-linejoin="round"></path>
        </g>
    </g>
</svg>